<svg id="Capa_1" enable-background="new 0 0 497 497" height="512" viewBox="0 0 497 497" width="512" xmlns="http://www.w3.org/2000/svg"><g><path d="m482 90h-467l-5 277 487-5v-257c0-8.284-6.716-15-15-15z" fill="#edf6ff"/><path d="m119 347c0-8.284-6.716-15-15-15h-74c-8.284 0-14.999 6.715-15 14.999v-256.999c-8.284 0-15 6.716-15 15v272l247.643 10 249.357-10v-15h-378z" fill="#cde2ff"/><path d="m338.058 367c.777 0 53.741-5 53.741-5l-10-15c-22.555 0-41.451 0-42.299 0-5.255 7.5-5.584 20-1.442 20z" fill="#7e8b96"/><path d="m343.058 362c-4.142 0-5.327-6.501-3.558-15-4.142 0-7.5 6.716-7.5 15s3.358 15 7.5 15c.526 0 19.021 10 19.021 10l23.278-10 10-15c-21.137 0-47.964 0-48.741 0z" fill="#5f6c75"/><path d="m459.5 347c-1.279 0-43.66 0-77.701 0v15l36.413 5 48.788-5c0-8.284-3.358-15-7.5-15z" fill="#9ec8fc"/><path d="m381.799 377 39.24 10s37.663-10 38.462-10c4.142 0 7.5-6.716 7.5-15-10.66 0-52.948 0-85.201 0v15z" fill="#80b6fc"/><path d="m134 347v-15c0-8.284-6.716-15-15-15h-74l-5 35z" fill="#d8ab8c"/><path d="m45 317c-8.284 0-15 6.716-15 15v15l15 5z" fill="#c7865b"/><path d="m45 347-5 20 94-5v-15z" fill="#7e8b96"/><path d="m45 354.5v-7.5h-15v15c0 8.284 6.716 15 15 15l37 10 37-10c8.284 0 15-6.716 15-15h-81.5c-4.142 0-7.5-3.358-7.5-7.5z" fill="#5f6c75"/><path d="m15 377-5 20 487-5v-15z" fill="#7e8b96"/><path d="m15 384.5v-7.5h-15v15c0 8.284 6.716 15 15 15h467c8.284 0 15-6.716 15-15h-474.5c-4.142 0-7.5-3.358-7.5-7.5z" fill="#5f6c75"/></g></svg>